<?xml version="1.0" encoding="UTF-8"?>
<!DOCTYPE svg PUBLIC "-//W3C//DTD SVG 1.1//EN"
    "http://www.w3.org/Graphics/SVG/1.1/DTD/svg11.dtd"><svg font-size="1" viewBox="0.0 0.0 500.0 428.5714285714285" stroke="rgb(0,0,0)" xmlns="http://www.w3.org/2000/svg" width="500.0000" stroke-opacity="1" height="428.5714" version="1.1" xmlns:xlink="http://www.w3.org/1999/xlink"><defs></defs><g stroke-linejoin="miter" fill-opacity="0.0" fill="rgb(0,0,0)" stroke="rgb(0,0,0)" stroke-linecap="butt" stroke-miterlimit="10.0" stroke-opacity="1.0" stroke-width="1.8516401995451028"><path d="M 500.0000,357.1429 c 0.0000,-39.4489 -31.9797,-71.4286 -71.4286 -71.4286c -39.4489,-0.0000 -71.4286,31.9797 -71.4286 71.4286c -0.0000,39.4489 31.9797,71.4286 71.4286 71.4286c 39.4489,0.0000 71.4286,-31.9797 71.4286 -71.4286Z"/></g><g stroke-linejoin="miter" fill-opacity="0.0" fill="rgb(0,0,0)" stroke="rgb(0,0,0)" stroke-linecap="butt" stroke-miterlimit="10.0" stroke-opacity="1.0" stroke-width="1.8516401995451028"><path d="M 357.1429,357.1429 c 0.0000,-32.8741 -26.6497,-59.5238 -59.5238 -59.5238c -32.8741,-0.0000 -59.5238,26.6497 -59.5238 59.5238c -0.0000,32.8741 26.6497,59.5238 59.5238 59.5238c 32.8741,0.0000 59.5238,-26.6497 59.5238 -59.5238Z"/></g><g stroke-linejoin="miter" fill-opacity="0.0" fill="rgb(0,0,0)" stroke="rgb(0,0,0)" stroke-linecap="butt" stroke-miterlimit="10.0" stroke-opacity="1.0" stroke-width="1.8516401995451028"><path d="M 238.0952,357.1429 c 0.0000,-26.2993 -21.3198,-47.6190 -47.6190 -47.6190c -26.2993,-0.0000 -47.6190,21.3198 -47.6190 47.6190c -0.0000,26.2993 21.3198,47.6190 47.6190 47.6190c 26.2993,0.0000 47.6190,-21.3198 47.6190 -47.6190Z"/></g><g stroke-linejoin="miter" fill-opacity="0.0" fill="rgb(0,0,0)" stroke="rgb(0,0,0)" stroke-linecap="butt" stroke-miterlimit="10.0" stroke-opacity="1.0" stroke-width="1.8516401995451028"><path d="M 142.8571,357.1429 c 0.0000,-19.7245 -15.9898,-35.7143 -35.7143 -35.7143c -19.7245,-0.0000 -35.7143,15.9898 -35.7143 35.7143c -0.0000,19.7245 15.9898,35.7143 35.7143 35.7143c 19.7245,0.0000 35.7143,-15.9898 35.7143 -35.7143Z"/></g><g stroke-linejoin="miter" fill-opacity="0.0" fill="rgb(0,0,0)" stroke="rgb(0,0,0)" stroke-linecap="butt" stroke-miterlimit="10.0" stroke-opacity="1.0" stroke-width="1.8516401995451028"><path d="M 71.4286,357.1429 c 0.0000,-13.1496 -10.6599,-23.8095 -23.8095 -23.8095c -13.1496,-0.0000 -23.8095,10.6599 -23.8095 23.8095c -0.0000,13.1496 10.6599,23.8095 23.8095 23.8095c 13.1496,0.0000 23.8095,-10.6599 23.8095 -23.8095Z"/></g><g stroke-linejoin="miter" fill-opacity="0.0" fill="rgb(0,0,0)" stroke="rgb(0,0,0)" stroke-linecap="butt" stroke-miterlimit="10.0" stroke-opacity="1.0" stroke-width="1.8516401995451028"><path d="M 23.8095,357.1429 c 0.0000,-6.5748 -5.3299,-11.9048 -11.9048 -11.9048c -6.5748,-0.0000 -11.9048,5.3299 -11.9048 11.9048c -0.0000,6.5748 5.3299,11.9048 11.9048 11.9048c 6.5748,0.0000 11.9048,-5.3299 11.9048 -11.9048Z"/></g><g stroke-linejoin="miter" fill-opacity="0.0" fill="rgb(0,0,0)" stroke="rgb(0,0,0)" stroke-linecap="butt" stroke-miterlimit="10.0" stroke-opacity="1.0" stroke-width="1.8516401995451028"><path d="M 500.0000,214.2857 c 0.0000,-39.4489 -31.9797,-71.4286 -71.4286 -71.4286c -39.4489,-0.0000 -71.4286,31.9797 -71.4286 71.4286c -0.0000,39.4489 31.9797,71.4286 71.4286 71.4286c 39.4489,0.0000 71.4286,-31.9797 71.4286 -71.4286Z"/></g><g stroke-linejoin="miter" fill-opacity="0.0" fill="rgb(0,0,0)" stroke="rgb(0,0,0)" stroke-linecap="butt" stroke-miterlimit="10.0" stroke-opacity="1.0" stroke-width="1.8516401995451028"><path d="M 357.1429,214.2857 c 0.0000,-32.8741 -26.6497,-59.5238 -59.5238 -59.5238c -32.8741,-0.0000 -59.5238,26.6497 -59.5238 59.5238c -0.0000,32.8741 26.6497,59.5238 59.5238 59.5238c 32.8741,0.0000 59.5238,-26.6497 59.5238 -59.5238Z"/></g><g stroke-linejoin="miter" fill-opacity="0.0" fill="rgb(0,0,0)" stroke="rgb(0,0,0)" stroke-linecap="butt" stroke-miterlimit="10.0" stroke-opacity="1.0" stroke-width="1.8516401995451028"><path d="M 238.0952,214.2857 c 0.0000,-26.2993 -21.3198,-47.6190 -47.6190 -47.6190c -26.2993,-0.0000 -47.6190,21.3198 -47.6190 47.6190c -0.0000,26.2993 21.3198,47.6190 47.6190 47.6190c 26.2993,0.0000 47.6190,-21.3198 47.6190 -47.6190Z"/></g><g stroke-linejoin="miter" fill-opacity="0.0" fill="rgb(0,0,0)" stroke="rgb(0,0,0)" stroke-linecap="butt" stroke-miterlimit="10.0" stroke-opacity="1.0" stroke-width="1.8516401995451028"><path d="M 142.8571,214.2857 c 0.0000,-19.7245 -15.9898,-35.7143 -35.7143 -35.7143c -19.7245,-0.0000 -35.7143,15.9898 -35.7143 35.7143c -0.0000,19.7245 15.9898,35.7143 35.7143 35.7143c 19.7245,0.0000 35.7143,-15.9898 35.7143 -35.7143Z"/></g><g stroke-linejoin="miter" fill-opacity="0.0" fill="rgb(0,0,0)" stroke="rgb(0,0,0)" stroke-linecap="butt" stroke-miterlimit="10.0" stroke-opacity="1.0" stroke-width="1.8516401995451028"><path d="M 71.4286,214.2857 c 0.0000,-13.1496 -10.6599,-23.8095 -23.8095 -23.8095c -13.1496,-0.0000 -23.8095,10.6599 -23.8095 23.8095c -0.0000,13.1496 10.6599,23.8095 23.8095 23.8095c 13.1496,0.0000 23.8095,-10.6599 23.8095 -23.8095Z"/></g><g stroke-linejoin="miter" fill-opacity="0.0" fill="rgb(0,0,0)" stroke="rgb(0,0,0)" stroke-linecap="butt" stroke-miterlimit="10.0" stroke-opacity="1.0" stroke-width="1.8516401995451028"><path d="M 23.8095,214.2857 c 0.0000,-6.5748 -5.3299,-11.9048 -11.9048 -11.9048c -6.5748,-0.0000 -11.9048,5.3299 -11.9048 11.9048c -0.0000,6.5748 5.3299,11.9048 11.9048 11.9048c 6.5748,0.0000 11.9048,-5.3299 11.9048 -11.9048Z"/></g><g stroke-linejoin="miter" fill-opacity="0.0" fill="rgb(0,0,0)" stroke="rgb(0,0,0)" stroke-linecap="butt" stroke-miterlimit="10.0" stroke-opacity="1.0" stroke-width="1.8516401995451028"><path d="M 500.0000,71.4286 c 0.0000,-39.4489 -31.9797,-71.4286 -71.4286 -71.4286c -39.4489,-0.0000 -71.4286,31.9797 -71.4286 71.4286c -0.0000,39.4489 31.9797,71.4286 71.4286 71.4286c 39.4489,0.0000 71.4286,-31.9797 71.4286 -71.4286Z"/></g><g stroke-linejoin="miter" fill-opacity="0.0" fill="rgb(0,0,0)" stroke="rgb(0,0,0)" stroke-linecap="butt" stroke-miterlimit="10.0" stroke-opacity="1.0" stroke-width="1.8516401995451028"><path d="M 357.1429,71.4286 c 0.0000,-32.8741 -26.6497,-59.5238 -59.5238 -59.5238c -32.8741,-0.0000 -59.5238,26.6497 -59.5238 59.5238c -0.0000,32.8741 26.6497,59.5238 59.5238 59.5238c 32.8741,0.0000 59.5238,-26.6497 59.5238 -59.5238Z"/></g><g stroke-linejoin="miter" fill-opacity="0.0" fill="rgb(0,0,0)" stroke="rgb(0,0,0)" stroke-linecap="butt" stroke-miterlimit="10.0" stroke-opacity="1.0" stroke-width="1.8516401995451028"><path d="M 238.0952,71.4286 c 0.0000,-26.2993 -21.3198,-47.6190 -47.6190 -47.6190c -26.2993,-0.0000 -47.6190,21.3198 -47.6190 47.6190c -0.0000,26.2993 21.3198,47.6190 47.6190 47.6190c 26.2993,0.0000 47.6190,-21.3198 47.6190 -47.6190Z"/></g><g stroke-linejoin="miter" fill-opacity="0.0" fill="rgb(0,0,0)" stroke="rgb(0,0,0)" stroke-linecap="butt" stroke-miterlimit="10.0" stroke-opacity="1.0" stroke-width="1.8516401995451028"><path d="M 142.8571,71.4286 c 0.0000,-19.7245 -15.9898,-35.7143 -35.7143 -35.7143c -19.7245,-0.0000 -35.7143,15.9898 -35.7143 35.7143c -0.0000,19.7245 15.9898,35.7143 35.7143 35.7143c 19.7245,0.0000 35.7143,-15.9898 35.7143 -35.7143Z"/></g><g stroke-linejoin="miter" fill-opacity="0.0" fill="rgb(0,0,0)" stroke="rgb(0,0,0)" stroke-linecap="butt" stroke-miterlimit="10.0" stroke-opacity="1.0" stroke-width="1.8516401995451028"><path d="M 71.4286,71.4286 c 0.0000,-13.1496 -10.6599,-23.8095 -23.8095 -23.8095c -13.1496,-0.0000 -23.8095,10.6599 -23.8095 23.8095c -0.0000,13.1496 10.6599,23.8095 23.8095 23.8095c 13.1496,0.0000 23.8095,-10.6599 23.8095 -23.8095Z"/></g><g stroke-linejoin="miter" fill-opacity="0.0" fill="rgb(0,0,0)" stroke="rgb(0,0,0)" stroke-linecap="butt" stroke-miterlimit="10.0" stroke-opacity="1.0" stroke-width="1.8516401995451028"><path d="M 23.8095,71.4286 c 0.0000,-6.5748 -5.3299,-11.9048 -11.9048 -11.9048c -6.5748,-0.0000 -11.9048,5.3299 -11.9048 11.9048c -0.0000,6.5748 5.3299,11.9048 11.9048 11.9048c 6.5748,0.0000 11.9048,-5.3299 11.9048 -11.9048Z"/></g></svg>